<svg viewBox="0 0 1024 1024"><path d="M512 512m-512 0a512 512 0 1 0 1024 0 512 512 0 1 0-1024 0Z" fill="#6DC781"></path><path d="M283.761778 394.126222h69.632v137.898667h137.216v69.632H353.393778V739.555556H283.761778v-137.898667H146.545778V532.024889h137.216V394.126222z m275.797333-53.248c16.384 0 32.312889-1.365333 47.786667-4.096 15.473778-2.730667 29.468444-7.281778 41.984-13.653333 12.515556-6.371556 23.210667-14.563556 32.085333-24.576 8.874667-10.012444 14.677333-22.300444 17.408-36.864H762.311111V739.555556h-85.333333V402.318222H559.559111v-61.44z" fill="#FFFFFF"></path></svg>