<svg viewBox="0 0 1024 1024"><path d="M511.07078 0.046461a511.07078 511.07078 0 0 1 511.070781 511.07078c0 282.250454-228.820327 511.07078-511.070781 511.070781s-511.07078-228.820327-511.07078-511.070781 228.820327-511.07078 511.07078-511.07078z" fill="#FFFFFF"></path><path d="M511.07078 92.968421a418.14882 418.14882 0 1 1 0 836.297641 418.14882 418.14882 0 0 1 0-836.297641z" fill="#FB7299"></path><path d="M436.733212 240.203267c40.28167 0.92922 77.357532 22.487114 98.450817 57.193466 20.349909 40.699819 0 89.344465 5.621779 95.059165 5.621779 5.66824 50.549546-15.843194 67.740109-21.232668a201.129583 201.129583 0 0 1 110.344827-11.89401 92.085662 92.085662 0 0 1 42.558258 89.205081c-3.949183 38.283848-38.051543 36.564791-78.240291 29.735027a430.46098 430.46098 0 0 0-142.681669 17.097641c-17.701633 5.714701-29.920871 9.199274-38.37677 24.113249h0.650454c-8.595281 14.867514-80.284574 179.571688-89.344465 202.569873-15.332123 27.876588-38.516152 50.549546-66.485662 65.231216a108.347005 108.347005 0 0 1-98.450817-5.714701c-27.830127-21.836661-35.310345-38.469691-5.110708-48.784029 30.199637-10.267877 88.694011-84.094374 103.561525-106.860254 14.867514-22.812341 68.669328-99.008348 56.775318-107.092559a293.865699 293.865699 0 0 0-102.957532 11.568784c-16.400726 5.064247-24.392015 13.148457-38.655536-5.250091a159.732849 159.732849 0 0 1-23.927404-77.125227c1.858439-9.199274 3.623956-13.75245 5.157168-13.75245a976.377495 976.377495 0 0 0 185.565155-25.181851c7.898367-24.438475 9.385118-50.549546 4.413793-75.731397a301.99637 301.99637 0 0 0-29.595644-77.26461c-4.553176-3.484574 6.272232-15.843194 32.987295-15.843194z m155.551362 340.326679a412.573503 412.573503 0 0 1 95.012704 27.737205c30.153176 15.053358 132.413793 51.618149 111.785118 117.825045-20.582214 66.067514-29.642105 71.642831-49.202178 55.520871-19.513612-16.12196-188.631579-166.516152-193.88167-174.879129a17.933938 17.933938 0 0 1 1.068603-22.30127c7.851906-6.690381 25.228312-4.367332 35.217423-3.902722z" fill="#FFFFFF"></path></svg>